<?xml version="1.0" standalone="no"?>
<!DOCTYPE svg PUBLIC "-//W3C//DTD SVG 20010904//EN"
 "http://www.w3.org/TR/2001/REC-SVG-20010904/DTD/svg10.dtd">
<svg version="1.0" xmlns="http://www.w3.org/2000/svg"
 width="1023.000000pt" height="1023.000000pt" viewBox="0 0 1023.000000 1023.000000"
 preserveAspectRatio="xMidYMid meet">
<metadata>
Created by potrace 1.11, written by Peter Selinger 2001-2013
</metadata>
<g transform="translate(0.000000,1023.000000) scale(0.100000,-0.100000)"
fill="#000000" stroke="none">
<path d="M550 8618 c0 -2 427 -1105 949 -2453 l948 -2450 682 0 682 0 29 87
c38 112 114 263 181 358 101 144 303 325 441 396 l47 24 10 -38 c5 -20 147
-548 315 -1172 167 -624 308 -1148 312 -1164 6 -26 8 -27 14 -10 4 10 148 541
320 1179 172 638 314 1162 316 1164 1 2 36 -19 76 -45 93 -62 289 -258 351
-351 342 -517 309 -1157 -84 -1627 -206 -245 -493 -407 -818 -461 -147 -25
-376 -16 -517 19 -172 43 -294 97 -441 195 -267 179 -472 465 -549 768 l-18
73 -558 0 -557 0 23 -62 c13 -35 47 -119 74 -189 28 -69 58 -150 67 -182 28
-98 93 -255 157 -380 362 -712 1069 -1195 1867 -1278 163 -17 494 -7 641 20
833 150 1508 698 1813 1471 25 63 50 135 57 160 6 25 19 56 29 70 9 14 246
619 525 1345 280 726 785 2036 1123 2910 339 875 618 1598 621 1608 4 16 -89
17 -1884 15 l-1889 -3 -375 -1392 c-206 -766 -378 -1389 -381 -1385 -4 4 -173
630 -377 1392 l-370 1385 -1926 3 c-1059 1 -1926 1 -1926 0z m3138 -985 c12
-42 527 -1972 537 -2015 6 -25 3 -29 -36 -44 -150 -59 -408 -213 -564 -338
-161 -129 -358 -344 -475 -518 -25 -37 -47 -67 -50 -68 -4 0 -981 2524 -1147
2962 l-22 58 873 0 873 0 11 -37z m4330 -710 c-158 -412 -422 -1093 -585
-1515 -163 -423 -299 -768 -303 -768 -4 0 -11 10 -17 23 -26 56 -207 281 -307
382 -189 189 -383 332 -612 447 -68 35 -124 68 -124 75 0 6 126 480 280 1054
154 573 280 1044 280 1046 0 1 377 3 839 3 l838 0 -289 -747z"/>
</g>
</svg>
